<svg xmlns="http://www.w3.org/2000/svg" width="16.826" height="16.826" viewBox="0 0 16.826 16.826">
  <g id="_02_User" data-name="02 User" transform="translate(0.006 0.003)">
    <path id="Path_17" data-name="Path 17" d="M.816,16.823a.822.822,0,0,1-.581-1.4L15.418.237A.822.822,0,0,1,16.58,1.4L1.4,16.582a.819.819,0,0,1-.581.241Z" transform="translate(0 0)" fill="#666"/>
    <path id="Path_18" data-name="Path 18" d="M16,16.823a.819.819,0,0,1-.581-.241L.237,1.4A.822.822,0,0,1,1.4.237L16.582,15.42a.822.822,0,0,1-.581,1.4Z" transform="translate(-0.003 0)" fill="#666"/>
  </g>
</svg>
