<svg xmlns="http://www.w3.org/2000/svg" width="32.167" height="31.959" viewBox="0 0 32.167 31.959">
  <g id="food-delivery" transform="translate(-0.483 -0.67)">
    <path id="Path_11" data-name="Path 11" d="M33.261,16.389a.787.787,0,0,0,.7-.862A14.1,14.1,0,0,0,21.682,2.917l.171-.668a1.3,1.3,0,0,0-.23-1.113A1.187,1.187,0,0,0,20.682.67H19.1a1.188,1.188,0,0,0-.96.489,1.3,1.3,0,0,0-.2,1.144l.184.61A14.088,14.088,0,0,0,5.806,15.59a.788.788,0,0,0,.708.86c.026,0,.051,0,.077,0a.787.787,0,0,0,.783-.711A12.572,12.572,0,0,1,32.4,15.685a.79.79,0,0,0,.863.7ZM19.567,2.244h.662l-.142.557c-.067,0-.132-.009-.2-.009s-.1.006-.155.007Z" transform="translate(-3.423)" fill="#ff4362"/>
    <path id="Path_12" data-name="Path 12" d="M31.863,47.33H1.27a.787.787,0,0,0,0,1.575h.546a3.049,3.049,0,0,0,2.938,2.266h3c.98,1.194,3.9,4.728,3.9,4.728.02.023.041.046.064.068l4.625,4.413.466.4-.631.438a.788.788,0,1,0,.9,1.293l6.083-4.255L25.323,60.3A.787.787,0,1,0,26.4,59.149l-2.7-2.54a.781.781,0,0,0-.889-.12,2.115,2.115,0,0,1-.028-1.163,4.1,4.1,0,0,1,.907-1.685l1.8-2a.784.784,0,0,0,.2-.469h2.492a3.048,3.048,0,0,0,2.937-2.266h.749a.788.788,0,0,0,0-1.575Zm-9.345,5.26a5.67,5.67,0,0,0-1.259,2.335,3.686,3.686,0,0,0,.26,2.58l-3.382,2.353-.739-.641L12.835,54.86c-.241-.291-1.887-2.287-3.042-3.689h1.176s2.663,2.274,2.683,2.288a9,9,0,0,0,3.914,1.186,5.065,5.065,0,0,0,3.693-1.611c.319-.343.614-.646.843-.879a3.583,3.583,0,0,1,1.256-.854,2.09,2.09,0,0,1,.423-.118Zm-2.409-.631a3.488,3.488,0,0,1-2.543,1.111,7.7,7.7,0,0,1-2.981-.88l-1.193-1.019H20.86c-.216.223-.47.486-.751.788ZM28.177,49.6H4.754A1.479,1.479,0,0,1,3.5,48.9H29.427A1.477,1.477,0,0,1,28.177,49.6Z" transform="translate(0 -30.028)" fill="#ff4362"/>
    <path id="Path_13" data-name="Path 13" d="M60.132,24.139a.786.786,0,0,0,.518-.985,9.538,9.538,0,0,0-5.8-6.129.787.787,0,0,0-.476,1.5,7.943,7.943,0,0,1,4.776,5.095.788.788,0,0,0,.752.554A.773.773,0,0,0,60.132,24.139Z" transform="translate(-34.327 -10.502)" fill="#ff4362"/>
  </g>
</svg>
