<svg xmlns="http://www.w3.org/2000/svg" width="35.741" height="32.367" viewBox="0 0 35.741 32.367">
  <g id="makeup" transform="translate(0 -3.041)">
    <path id="Path_14" data-name="Path 14" d="M26.909,55H23.558a.558.558,0,1,0,0,1.117h3.351a.558.558,0,1,0,0-1.117Z" transform="translate(-10.156 -22.942)" fill="#ff4362"/>
    <path id="Path_15" data-name="Path 15" d="M15.078,15.234a11.642,11.642,0,0,0-7.26,2.525v-.586a4.574,4.574,0,0,0-2.542-4.114.559.559,0,0,0-.5,0,4.574,4.574,0,0,0-2.542,4.114v8.113H1.676a.558.558,0,0,0-.558.558v2.792H.559a.558.558,0,0,0-.557.59l.5,9a1.675,1.675,0,0,0,1.672,1.583H22.9A3.914,3.914,0,0,0,26.806,35.9V34.78a.558.558,0,0,0-.558-.558H24.279a11.718,11.718,0,0,0-9.2-18.987Zm4.163,18.987H9.774l.278-4.995a.558.558,0,0,0-.557-.59H8.935V25.844a.558.558,0,0,0-.558-.558H7.818V22.8A8.371,8.371,0,1,1,19.241,34.221ZM5.026,14.2A3.46,3.46,0,0,1,6.153,15.3a5,5,0,0,1-2.8,2.022v-.151A3.461,3.461,0,0,1,5.026,14.2ZM3.351,18.475A6.105,6.105,0,0,0,6.632,16.51a3.511,3.511,0,0,1,.07.662v8.113H3.351V18.475ZM2.234,26.4H7.818v2.234H2.234ZM2.173,38.689a.558.558,0,0,1-.557-.528l-.467-8.408H8.9l-.279,5.016s0,.007,0,.01v.006l-.188,3.376a.559.559,0,0,1-.557.527ZM25.689,35.9A2.8,2.8,0,0,1,22.9,38.689H9.45a1.657,1.657,0,0,0,.1-.465l.16-2.885H25.689Zm-4.5-1.675A9.487,9.487,0,1,0,7.818,20.855V19.237A10.6,10.6,0,0,1,22.8,34.221Z" transform="translate(0 -4.397)" fill="#ff4362"/>
    <path id="Path_16" data-name="Path 16" d="M55.049,6.8a2.069,2.069,0,0,0-.885-2.469l-.143-.086a8.762,8.762,0,0,0-8.872,0l-.143.086a2.069,2.069,0,0,0-.885,2.47L46.8,14.3l1.052,19.468a1.738,1.738,0,0,0,3.471,0L52.372,14.3l2.677-7.5ZM47.94,14.746h3.289l-.121,2.234H48.061ZM45.117,6.107a.956.956,0,0,1,.462-.816l.144-.086a7.629,7.629,0,0,1,7.724,0l.143.086A.954.954,0,0,1,54,6.427l-2.572,7.2h-3.68l-2.572-7.2a.959.959,0,0,1-.056-.322ZM50.2,33.7a.62.62,0,0,1-1.239,0L48.121,18.1h2.926L50.2,33.7Z" transform="translate(-19.428)" fill="#ff4362"/>
  </g>
</svg>
