<svg xmlns="http://www.w3.org/2000/svg" width="270.984" height="270.984" viewBox="0 0 270.984 270.984">
  <path id="phone-call_1_" data-name="phone-call (1)" d="M263.268,196.109c-.741-.587-54.513-39.347-69.273-36.565-7.046,1.247-11.074,6.052-19.159,15.672-1.3,1.554-4.426,5.275-6.856,7.922a113.061,113.061,0,0,1-14.913-6.07,123.749,123.749,0,0,1-57.1-57.1,112.532,112.532,0,0,1-6.07-14.913c2.656-2.439,6.377-5.564,7.967-6.9,9.575-8.039,14.389-12.068,15.636-19.132C116.06,64.392,77.327,10.25,76.921,9.762A20.676,20.676,0,0,0,61.52,1C45.821,1,1,59.144,1,68.936c0,.569.822,58.415,72.154,130.976,72.488,71.251,130.325,72.073,130.895,72.073,9.8,0,67.936-44.821,67.936-60.52a20.622,20.622,0,0,0-8.717-15.356Z" transform="translate(-1 -1)" fill="#ff4362"/>
</svg>
