<svg xmlns="http://www.w3.org/2000/svg" width="32.751" height="21.833" viewBox="0 0 32.751 21.833">
  <path id="video" d="M31.427,5.3a3.065,3.065,0,0,0-3.184.166L22.334,9.428V6.275A3.279,3.279,0,0,0,19.058,3H3.775A3.279,3.279,0,0,0,.5,6.275V21.558a3.279,3.279,0,0,0,3.275,3.275H19.058a3.279,3.279,0,0,0,3.275-3.275V18.405l5.91,3.966a3.043,3.043,0,0,0,3.183.166,3.545,3.545,0,0,0,1.823-3.166V8.463A3.545,3.545,0,0,0,31.427,5.3ZM20.15,21.558a1.093,1.093,0,0,1-1.092,1.092H3.775a1.093,1.093,0,0,1-1.092-1.092V6.275A1.093,1.093,0,0,1,3.775,5.183H19.058A1.093,1.093,0,0,1,20.15,6.275Zm10.917-2.188a1.368,1.368,0,0,1-.667,1.241.87.87,0,0,1-.939-.053l-7.127-4.782V12.057l7.126-4.782a.884.884,0,0,1,.94-.053,1.368,1.368,0,0,1,.667,1.24Z" transform="translate(-0.5 -3)" fill="#ff4362"/>
</svg>
